<svg width="61" height="67" viewBox="0 0 61 67" fill="none" xmlns="http://www.w3.org/2000/svg">
<g id="icon">
<g id="Subtract">
<path fill-rule="evenodd" clip-rule="evenodd" d="M30.4202 63.1094C30.4202 63.1094 53.7536 40.3644 53.7536 27.1094C53.7536 13.8545 43.3069 3.10938 30.4202 3.10938C17.5336 3.10938 7.08691 13.8545 7.08691 27.1094C7.08691 40.3644 30.4202 63.1094 30.4202 63.1094ZM41.4969 23.1567C41.4969 29.2729 36.5386 34.2313 30.4223 34.2313C24.306 34.2313 19.3477 29.2729 19.3477 23.1567C19.3477 17.0404 24.306 12.082 30.4223 12.082C36.5386 12.082 41.4969 17.0404 41.4969 23.1567Z" fill="white"/>
<path d="M30.4202 63.1094L28.3262 65.2576C29.4913 66.3933 31.3492 66.3933 32.5143 65.2576L30.4202 63.1094ZM50.7536 27.1094C50.7536 29.6555 49.5925 33.0196 47.4762 36.8859C45.402 40.6751 42.5989 44.6124 39.7379 48.214C36.8856 51.8044 34.0256 54.9991 31.8748 57.2994C30.8009 58.4478 29.9076 59.3693 29.2854 60.0011C28.9744 60.3169 28.7314 60.56 28.5677 60.7227C28.4858 60.804 28.4238 60.8652 28.3831 60.9053C28.3627 60.9253 28.3477 60.9401 28.3381 60.9494C28.3334 60.9541 28.33 60.9574 28.328 60.9594C28.327 60.9604 28.3263 60.961 28.326 60.9613C28.3259 60.9614 28.3259 60.9614 28.3258 60.9615C28.326 60.9613 28.3262 60.9611 30.4202 63.1094C32.5143 65.2576 32.5147 65.2572 32.5152 65.2567C32.5155 65.2565 32.516 65.2559 32.5166 65.2554C32.5177 65.2543 32.5192 65.2528 32.521 65.251C32.5247 65.2475 32.5297 65.2425 32.5362 65.2362C32.5491 65.2236 32.5675 65.2055 32.5913 65.1821C32.6388 65.1353 32.7079 65.0672 32.7969 64.9787C32.975 64.8017 33.2333 64.5433 33.5603 64.2112C34.2141 63.5474 35.1437 62.5883 36.2574 61.3973C38.4815 59.0187 41.4548 55.6987 44.4359 51.946C47.4082 48.2045 50.4384 43.9702 52.7393 39.7668C54.998 35.6403 56.7536 31.1908 56.7536 27.1094H50.7536ZM30.4202 6.10938C41.571 6.10938 50.7536 15.4312 50.7536 27.1094H56.7536C56.7536 12.2779 45.0429 0.109375 30.4202 0.109375V6.10938ZM10.0869 27.1094C10.0869 15.4312 19.2696 6.10938 30.4202 6.10938V0.109375C15.7977 0.109375 4.08691 12.2779 4.08691 27.1094H10.0869ZM30.4202 63.1094C32.5143 60.9611 32.5145 60.9613 32.5147 60.9615C32.5146 60.9614 32.5146 60.9614 32.5145 60.9613C32.5142 60.961 32.5135 60.9604 32.5125 60.9594C32.5105 60.9574 32.5071 60.9541 32.5023 60.9494C32.4928 60.9401 32.4778 60.9253 32.4574 60.9053C32.4167 60.8652 32.3547 60.804 32.2728 60.7227C32.1091 60.56 31.8661 60.3169 31.5551 60.0011C30.9329 59.3693 30.0396 58.4478 28.9657 57.2994C26.8149 54.9991 23.9548 51.8044 21.1026 48.214C18.2416 44.6124 15.4384 40.6751 13.3643 36.8859C11.248 33.0196 10.0869 29.6555 10.0869 27.1094H4.08691C4.08691 31.1908 5.84248 35.6403 8.10119 39.7668C10.402 43.9702 13.4323 48.2045 16.4046 51.946C19.3856 55.6987 22.359 59.0187 24.5831 61.3973C25.6968 62.5883 26.6264 63.5474 27.2802 64.2112C27.6072 64.5433 27.8655 64.8017 28.0436 64.9787C28.1326 65.0672 28.2017 65.1353 28.2492 65.1821C28.273 65.2055 28.2914 65.2236 28.3043 65.2362C28.3108 65.2425 28.3158 65.2475 28.3195 65.251C28.3213 65.2528 28.3228 65.2543 28.3239 65.2554C28.3244 65.2559 28.325 65.2565 28.3253 65.2567C28.3258 65.2572 28.3262 65.2576 30.4202 63.1094ZM30.4223 37.2313C38.1954 37.2313 44.4969 30.9298 44.4969 23.1567H38.4969C38.4969 27.6161 34.8817 31.2313 30.4223 31.2313V37.2313ZM16.3477 23.1567C16.3477 30.9298 22.6491 37.2313 30.4223 37.2313V31.2313C25.9628 31.2313 22.3477 27.6161 22.3477 23.1567H16.3477ZM30.4223 9.08203C22.6491 9.08203 16.3477 15.3835 16.3477 23.1567H22.3477C22.3477 18.6972 25.9628 15.082 30.4223 15.082V9.08203ZM44.4969 23.1567C44.4969 15.3835 38.1954 9.08203 30.4223 9.08203V15.082C34.8817 15.082 38.4969 18.6972 38.4969 23.1567H44.4969Z" fill="white"/>
</g>
</g>
</svg>
